<mxfile host="65bd71144e">
    <diagram id="XnEOJSHnZ9pZGUllww8F" name="Page-1">
        <mxGraphModel dx="1034" dy="680" grid="1" gridSize="10" guides="1" tooltips="1" connect="1" arrows="1" fold="1" page="1" pageScale="1" pageWidth="827" pageHeight="1169" background="#FFFFFF" math="0" shadow="0">
            <root>
                <mxCell id="0"/>
                <mxCell id="1" parent="0"/>
                <mxCell id="3" value="&lt;b&gt;&lt;font color=&quot;#000000&quot; style=&quot;font-size: 14px;&quot;&gt;ghcr.io&lt;/font&gt;&lt;/b&gt;" style="verticalLabelPosition=bottom;html=1;verticalAlign=top;align=center;strokeColor=#000000;fillColor=#000000;shape=mxgraph.azure.github_code;pointerEvents=1;" parent="1" vertex="1">
                    <mxGeometry x="545.2" y="130" width="50" height="50" as="geometry"/>
                </mxCell>
                <mxCell id="5" style="edgeStyle=none;html=1;entryX=0;entryY=0.5;entryDx=0;entryDy=0;entryPerimeter=0;strokeColor=#000000;" parent="1" source="6" target="3" edge="1">
                    <mxGeometry relative="1" as="geometry">
                        <mxPoint x="538.1117647058825" y="235" as="targetPoint"/>
                    </mxGeometry>
                </mxCell>
                <mxCell id="6" value="&lt;b&gt;&lt;font color=&quot;#000000&quot; style=&quot;font-size: 14px;&quot;&gt;gh actions&lt;/font&gt;&lt;/b&gt;" style="verticalLabelPosition=bottom;html=1;verticalAlign=top;align=center;strokeColor=#000000;fillColor=#000000;shape=mxgraph.azure.github_code;pointerEvents=1;" parent="1" vertex="1">
                    <mxGeometry x="351.2" y="130" width="50" height="50" as="geometry"/>
                </mxCell>
                <mxCell id="8" value="&lt;b&gt;&lt;font color=&quot;#000000&quot;&gt;5. push image&lt;/font&gt;&lt;/b&gt;" style="text;html=1;align=center;verticalAlign=middle;resizable=0;points=[];autosize=1;strokeColor=none;fillColor=none;" parent="1" vertex="1">
                    <mxGeometry x="416.2" y="130" width="100" height="30" as="geometry"/>
                </mxCell>
                <mxCell id="9" style="edgeStyle=none;html=1;entryX=1;entryY=0.5;entryDx=0;entryDy=0;entryPerimeter=0;strokeColor=#000000;" parent="1" source="10" target="3" edge="1">
                    <mxGeometry relative="1" as="geometry">
                        <mxPoint x="558.2" y="155" as="targetPoint"/>
                    </mxGeometry>
                </mxCell>
                <mxCell id="25" style="edgeStyle=none;html=1;strokeColor=#000000;" parent="1" source="10" target="14" edge="1">
                    <mxGeometry relative="1" as="geometry">
                        <Array as="points">
                            <mxPoint x="621.2" y="280"/>
                            <mxPoint x="441.2" y="280"/>
                        </Array>
                    </mxGeometry>
                </mxCell>
                <mxCell id="10" value="trivy" style="shape=image;verticalLabelPosition=bottom;labelBackgroundColor=none;verticalAlign=top;aspect=fixed;imageAspect=0;image=data:image/svg+xml,PHN2ZyB4bWxucz0iaHR0cDovL3d3dy53My5vcmcvMjAwMC9zdmciIGlkPSJzdmcxMzAyIiB2ZXJzaW9uPSIxLjEiIGZpbGw9Im5vbmUiIHZpZXdCb3g9IjAgMCA1MDAgNTI0IiBoZWlnaHQ9IjUyNCIgd2lkdGg9IjUwMCI+CiAgPG1ldGFkYXRhIGlkPSJtZXRhZGF0YTEzMDgiPgogICAgCiAgICAgIAogICAgICAgIGltYWdlL3N2Zyt4bWwKICAgICAgICAKICAgICAgICAKICAgICAgCiAgICAKICA8L21ldGFkYXRhPgogIDxkZWZzIGlkPSJkZWZzMTMwNiIvPgogIAogIDxwYXRoIHN0eWxlPSJmaWxsOiMxOTA0ZGE7c3Ryb2tlLXdpZHRoOjEuNzYxMTc2ODIiIGlkPSJwYXRoMTI0NCIgZD0iTSAyNDYuMTcwMTIsMzAwLjk0ODY0IEMgMjE4LjExNTIxLDI4OS41NzE0OCAyMDEuNTMxMjQsMjY1LjI0Mzg3IDIwMi40MTQzMywyMzkuNDEzMjcgTCAxNDIuNDQzNzQsMjA4LjIwNDIgYyAtNC40NzI5OCwyOS44OTk5OCAyLjY3MzQsNjEuMTc0MjUgMjAuNjcxMDcsODguMjczODMgMTkuMTU3MTksMjguODQ1MDEgNDYuODIyNTEsNTAuMzI4NzIgODMuMDU3MTcsNjIuNzY3NTQgdiAtNTguMjk2OTMgeiIvPgogIDxwYXRoIHN0eWxlPSJmaWxsOm5vbmU7c3Ryb2tlLXdpZHRoOjEuNzYxMTc2ODIiIGlkPSJwYXRoMTI0NiIgZD0ibSAyNDguNDQwOTQsMzYyLjIxODE3IC0zLjA4MTU1LC0xLjA1ODI5IGMgLTM2LjA0NTQzLC0xMi4zNzUyOSAtNjQuMzcxMjIsLTMzLjc4Mzc3IC04NC4xOTYzLC02My42MzAyNCAtMTguMDk0MTMsLTI3LjI0NTAyIC0yNS41NDI5MSwtNTkuMDY2IC0yMC45Njk3NiwtODkuNTk5NjMgbCAwLjQ1MjY5LC0zLjAyNzc3IDY0LjA3ODA4LDMzLjM0OTA2IC0wLjA0MDksMS4yMjU1IGMgLTAuODcwMTIsMjUuNDA3NjIgMTUuNzgwNjUsNDguODAzOTcgNDIuNDE2MzEsNTkuNjA0MzQgbCAxLjM0MTMzLDAuNTQzMzcgeiBNIDE0NC4yODIyOSwyMTEuNTI2MjQgYyAtMy41MTE5NywyOC42ODExNyAzLjgxODA4LDU4LjM1NTQ0IDIwLjc3ODY3LDgzLjkwMDE3IDE4LjcxOTM1LDI4LjE4Mjk1IDQ1LjIzMDcxLDQ4LjYzMTc3IDc4LjgzNDY1LDYwLjgxODEzIFYgMzAyLjI1OTQgYyAtMjcuMTA4NzYsLTExLjUzNDMzIC00NC4xMzQyNywtMzUuNTE0MTcgLTQzLjc4MzYzLC02MS42Nzc0NyB6Ii8+CiAgPHBhdGggc3R5bGU9ImZpbGw6IzE5MDRkYTtzdHJva2Utd2lkdGg6MS43NjExNzY4MiIgaWQ9InBhdGgxMjQ4IiBkPSJNIDI0Ni4xNjgyOCw0MzMuMTQxMTggViAzNjYuMTQwNDMgQyAyMDcuMzYwNCwzNTMuMzY3MjIgMTc3LjYzMDE5LDMzMC4zNzU0NyAxNTcuMjI4MTMsMjk5LjY1NDYxIDEzNy45Mjk5NSwyNzAuNTk1NTggMTMwLjU4NTA2LDIzNi45MTM4IDEzNi4wNTQzLDIwNC44ODM4MyBMIDgwLjMxMzY2MywxNzUuODc2NjYgQyA0OC4zODEyOTcsMjgwLjkwMjc1IDEyMC4wMjg3NiwzOTIuNzYzNTEgMjQ2LjE2ODI4LDQzMy4xNDExOCBaIi8+CiAgPHBhdGggc3R5bGU9ImZpbGw6bm9uZTtzdHJva2Utd2lkdGg6MS43NjExNzY4MiIgaWQ9InBhdGgxMjUwIiBkPSJtIDI0OC40MzkwOCw0MzYuMDQwMjQgLTMuMDMxNDUsLTAuOTY5NyBDIDE4My45NTY1Nyw0MTUuNDAwODEgMTMzLjAyODQxLDM3OC4wMDc0NiAxMDEuOTk3NjksMzI5Ljc3ODYxIDcwLjk3ODEwMiwyODEuNTY4MTcgNjIuNDk3ODA2LDIyNi43MTY5OSA3OC4xMTg5MTYsMTc1LjMzMTYxIGwgMC43ODEwNTMsLTIuNTU3OTcgNTkuNjM0NzkxLDMxLjAzMzUxIC0wLjIzNTYxLDEuMzg1OTkgYyAtNS40Mjg0MywzMS43OTA4OCAxLjk4ODgsNjQuOTY0NCAyMC44NzY5OSw5My40MDY0OSAyMC43MTE4OCwzMS4xODczNSA1MC4yNDE3LDUzLjI2MjkgODcuNzY5NDgsNjUuNjE0NzggbCAxLjQ5MTYxLDAuNDkxNTQgdiA3MS4zMzQyOSB6IE0gODEuNzQ3NzYxLDE3OC45ODQ2OSBDIDUxLjk3ODYwNSwyODIuMzc1NjggMTIxLjE0MDA0LDM4OS41NTUxNyAyNDMuODkzNzUsNDMwLjIyMjA3IHYgLTYyLjY1NzIgYyAtMzcuODIwODksLTEyLjc3MzIxIC02Ny42MjksLTM1LjI2MTcyIC04OC42MTM2MSwtNjYuODYwMzMgLTE5LjE1OTA1LC0yOC44NDUwMSAtMjYuODQzNDUsLTYyLjQzODE3IC0yMS43MDI1OCwtOTQuNzQ3MzUgeiIvPgogIDxwYXRoIHN0eWxlPSJmaWxsOiMwOGIxZDU7c3Ryb2tlLXdpZHRoOjEuNzYxMTc2ODIiIGlkPSJwYXRoMTI1MiIgZD0ibSAyNTQuMzg1MTIsMzY1LjUyNTE3IHYgNjcuNjExIEMgMzc4LjE5MjYsMzkxLjgyMjI0IDQ1Mi41MDk3NSwyODAuMTU3MDggNDIxLjExOTExLDE3Ni4yMTk0IGwgLTU1LjQzODI0LDI5LjEwNTgzIGMgNi45MTgxOSwzNC41NDc4MSAwLjg4NDk1LDY4LjIyNzkyIC0xNy42NjAwMSw5Ni40MDQxOCAtMTkuMDUzMjksMjguOTUyMDIgLTUyLjMyMzI4LDUwLjY3ODE2IC05My42MzU3NCw2My43OTU3NiB6Ii8+CiAgPHBhdGggc3R5bGU9ImZpbGw6bm9uZTtzdHJva2Utd2lkdGg6MS43NjExNzY4MiIgaWQ9InBhdGgxMjU0IiBkPSJtIDI1Mi4xMTI0Niw0MzYuMDgyMDMgdiAtNzIuMDA0NzEgbCAxLjUxNzU5LC0wLjQ4MTUxIGMgNDIuMjA2NjcsLTEzLjQwMzQ5IDc0LjE2ODcyLC0zNS4xNTgwNSA5Mi40MzkxLC02Mi45MDc5OCAxOC4yNTM2OSwtMjcuNzQzMjQgMjQuMjY0NjYsLTYwLjU4OTEgMTcuMzc0MzIsLTk0Ljk5NDggbCAtMC4yODM4NiwtMS40MTI3MyA1OS4zNzMyLC0zMS4xNzIyOCAwLjc3NzM0LDIuNTc2MzcgYyAzMS4yNzM3NiwxMDMuNTQ2NDcgLTQyLjU3OTU4LDIxNy40NzcwMyAtMTY4LjEzNDcsMjU5LjM3NjEyIHogbSA0LjU0NTMzLC02OS4xMTA2OCBWIDQzMC4xNzg2IEMgMzc3LjEyNTg1LDM4OC41NTIwNCA0NDguMTEwOTgsMjc5LjMyMjgyIDQxOS42ODMxNywxNzkuMzQ1ODEgbCAtNTEuNDg4NDQsMjcuMDMyNyBjIDYuNjQxNzQsMzQuODc3MTggMC4zNTQzNSw2OC4xNzc3NiAtMTguMjE4NDQsOTYuMzk3NSAtMTguNTk1MDUsMjguMjU0ODUgLTUwLjg0MDk2LDUwLjQzMDcxIC05My4zMTg1LDY0LjE5NTM0IHoiLz4KICA8cGF0aCBzdHlsZT0iZmlsbDojMDhiMWQ1O3N0cm9rZS13aWR0aDoxLjc2MTE3NjgyIiBpZD0icGF0aDEyNTYiIGQ9Im0gMjk5LjU4MjQ0LDIzOS43MDI1MSBjIDAuMjQ4NiwyNS4wODE2IC0xNi4xMDkwMyw0Ny4xNTA0NyAtNDUuMTk1NDYsNjEuMjQ2MTMgdiA1OC4yOTY5MyBjIDM4LjY1MzksLTEyLjY5Nzk2IDY5Ljg3NTcxLC0zMy41MjQ2MiA4Ny43Mzc5NCwtNjAuNjY1OTkgMTcuMjk2MzgsLTI2LjI3ODY4IDIzLjE3OTM1LC01Ny42MzQ4NiAxNy4yNDYyOCwtODkuOTM5MDEgeiIvPgogIDxwYXRoIHN0eWxlPSJmaWxsOm5vbmU7c3Ryb2tlLXdpZHRoOjEuNzYxMTc2ODIiIGlkPSJwYXRoMTI1OCIgZD0ibSAyNTIuMTEyNDYsMzYyLjE3MTM3IHYgLTYyLjQ0ODIyIGwgMS4xOTg0OCwtMC41ODAxNCBjIDI4LjE5Nzc2LC0xMy42Njc2NSA0NC4yMzYzLC0zNS4zMjUyNCA0My45OTUxMywtNTkuNDIzNzggbCAtMC4wMTMsLTEuMTk1NDEgNjMuNzg0OTQsLTMzLjEzNTA3IDAuNTMyNDYsMi45MTU3NiBjIDYuMDcyMTksMzMuMDgzMjYgMC4wMTMsNjQuNjYxOCAtMTcuNTMzODYsOTEuMzE4MzMgLTE3Ljc2MDIsMjYuOTg5MjEgLTQ4LjUwNTIxLDQ4LjI3MDY1IC04OC45MTQxNSw2MS41NDU0MSB6IG0gNC41NDUzMywtNjAuMDA3MjcgdiA1NC4xMzIyNiBjIDM3LjkwMDY3LC0xMy4wMDA1NiA2Ni43MzY2NCwtMzMuMjc4ODUgODMuNTEzNTUsLTU4Ljc2MTcyIDE2LjQ3MjY3LC0yNS4wMzMxIDIyLjQ4MzY1LC01NC41Nzg2NCAxNy40NjMzNiwtODUuNjMwNTYgbCAtNTUuNzgxNDQsMjguOTgwNDQgYyAtMC4yNzQ1OCwyNC44NDA4NiAtMTYuNjYwMDQsNDcuMDYzNTUgLTQ1LjE5NTQ3LDYxLjI3OTU4IHoiLz4KICA8cGF0aCBzdHlsZT0iZmlsbDojZmZjOTAwO3N0cm9rZS13aWR0aDoxLjc2MTE3NjgyIiBpZD0icGF0aDEyNjAiIGQ9Im0gMzA4LjIxNjcyLDE1MC4wNzI3OSBjIDIzLjM4NTI4LDEwLjI3NzA4IDQyLjQzMTE2LDI2LjczODQ0IDU1LjA4MDE3LDQ3LjYwNTI0IDAuMTY2OTcsMC4yNzQxOCAwLjMyMjgxLDAuNTYwMDcgMC40ODYwOCwwLjgzNzYxIGwgNTQuMzc4OSwtMjguMjk4MzEgYyAtMC44NjQ1NCwtMC45ODEzOSAtMS42OTU3LC0xLjk3NDUxIC0yLjM3ODQyLC0yLjk2OTI4IEMgMzk1LjgzNTkzLDEzOC4xNjg5NyAzNjkuNDgwNCwxMTYuMjkwNyAzMzcuNDUxNTgsMTAyLjIxMTc2IDI0Ny4wMzQ2Nyw2Mi40NzY3NTcgMTM2LjIzOTgyLDkyLjQzNjkyNCA4My4zMDYxNjMsMTcwLjMyMjY1IGwgNTQuMjQ3MTY3LDI4LjIxODA3IGMgMzYuODMzOTEsLTUzLjM2NjU1IDExMC45Nzg1MSwtNzQuNjk2NDUgMTcwLjY2MzM5LC00OC40Njc5MyB6Ii8+CiAgPHBhdGggc3R5bGU9ImZpbGw6bm9uZTtzdHJva2Utd2lkdGg6MS43NjExNzY4MiIgaWQ9InBhdGgxMjYyIiBkPSJtIDM2Mi44ODY4OSwyMDEuMzQ3ODIgLTEuNTgwNjYsLTIuNjcxNjggQyAzNDguODgxNywxNzguMTcwNDggMzMwLjE3OTA0LDE2Mi4wMDY3IDMwNy4yMjQxNiwxNTEuOTE1MjEgMjQ5LjIxNDU3LDEyNi40MjIzMiAxNzUuNTMzNzgsMTQ3LjM3OTM5IDEzOS40ODQ2MywxOTkuNjI1NzggbCAtMS4xNjMyMywxLjY4MTkgLTU4LjE2OTE0MywtMzAuMjYxMSAxLjIxNzAzNiwtMS43OTIyNiBDIDEzNC43NDA4LDkwLjcyODkyNiAyNDcuNjcxMDEsNjAuNDg0NTQgMzM4LjQ0NTk3LDEwMC4zNzQzNiBjIDMyLjQyNDAxLDE0LjI0OTQ3IDU5LjA5MzA2LDM2LjM4Njg5IDc5LjI2ODc5LDY1LjgwMDM1IDAuNjQwMDUsMC45MjYyMiAxLjQyMTEsMS44NTQxMiAyLjIyODEzLDIuNzcxOTkgbCAxLjYzODE4LDEuODYwOCB6IE0gODYuNDc2NzY0LDE2OS42MDg3NSAxMzYuNzk4MjQsMTk1Ljc4NzEyIGMgMzcuNjgzNjIsLTUyLjc2OTY4IDExMi45NzQ3NiwtNzMuNjczMjUgMTcyLjQxNDc0LC00Ny41NTE3MyAyMy40MzM1MSwxMC4yOTcxNCA0Mi41ODMzLDI2LjY4OTk2IDU1LjQ1NjgsNDcuNDU2NDQgbCA1MC4xMjY2OCwtMjYuMDg0NzUgYyAtMC4zMzc2NSwtMC40MjYzMiAtMC42NTMwNCwtMC44NTI2NSAtMC45NDYxNywtMS4yNzczMSAtMTkuNzIzMDQsLTI4Ljc0MzA0IC00NS43NTc2LC01MC4zNjg4NiAtNzcuMzk0OTgsLTY0LjI3MzkyIEMgMjQ4LjQyNDIzLDY1LjM3NDggMTM5LjEyNDcyLDk0LjE5NjQxNCA4Ni40NzY3NjQsMTY5LjYwODc1IFoiLz4KICA8cGF0aCBzdHlsZT0iZmlsbDojZmZjOTAwO3N0cm9rZS13aWR0aDoxLjc2MTE3NjgyIiBpZD0icGF0aDEyNjQiIGQ9Im0gMjc0LjI1ODQzLDIxMi4yNjUyMiBjIDkuNjgwNjQsNC4yNTQ5NCAxNy41MzAxNiwxMS4xMjQ3MiAyMi43MDI1NiwxOS44NjM2NSAwLjE3NDM5LDAuMjk1OTIgMC4zMjgzNywwLjYwNTIyIDAuNDkzNDksMC45MDYxNSBsIDYwLjM4ODAyLC0zMS40MjY0IGMgLTAuMTg5MjQsLTAuMzIwOTkgLTAuMzcxMDYsLTAuNjQ4NjkgLTAuNTY0MDEsLTAuOTY2MzUgLTExLjk2MjU3LC0xOS43MzY1OSAtMjkuOTY3NjYsLTM1LjMwNTE3IC01Mi4wNjcyNSwtNDUuMDE1NDggLTU2LjQ2MjM0LC0yNC44MTc0NSAtMTI2LjY4NjgyLC00LjU3NDI3IC0xNjEuNzE3NDMsNDYuMDA1MjQgbCA2MC4wNTk2MywzMS4yNDA4MyBjIDE1LjY1MDc5LC0yMi42MjIyNiA0NS45MzU3LC0zMS40OTMyOCA3MC43MDQ5OSwtMjAuNjA3NjQgeiIvPgogIDxwYXRoIHN0eWxlPSJmaWxsOm5vbmU7c3Ryb2tlLXdpZHRoOjEuNzYxMTc2ODIiIGlkPSJwYXRoMTI2NiIgZD0ibSAyOTYuNDgyMzQsMjM1LjkwNTY1IC0xLjUzNjE0LC0yLjgyODgyIGMgLTQuOTMxMjMsLTguMzQxMDQgLTEyLjQzMzgxLC0xNC45MDQ4NiAtMjEuNjg1ODgsLTE4Ljk3NDIxIGggMC4wMDQgYyAtMjMuNjM3NTksLTEwLjM3OTA3IC01Mi43NzIyNiwtMS44NDc0MyAtNjcuNzg0ODQsMTkuODUzNjIgbCAtMS4xNTk1MywxLjY4MDI0IC02NC4wMDIwMiwtMzMuMjkwNTUgMS4yNDY3MiwtMS43OTg5NiBjIDM2LjA2Mzk5LC01Mi4wNjc0OSAxMDYuODQ4NzUsLTcyLjE3MzU2IDE2NC42NDEyOSwtNDYuNzYyNiAyMi41MjQ0NSw5Ljg5NzU2IDQwLjg3NDYyLDI1Ljc2MDM5IDUzLjA2NTM4LDQ1Ljg3NDgzIGwgMS42MTU5MiwyLjcyODUzIHogbSAtNDQuNDUzMzcsLTMwLjMwMTIyIGMgNy44OTc3NiwwIDE1LjgwODQ4LDEuNTU2NTMgMjMuMjI1NzMsNC44MTgzNyBoIDAuMDA0IGMgOS43NDc0Myw0LjI4ODM4IDE3LjcyMTI0LDExLjEwOTY3IDIzLjExODEzLDE5Ljc2ODM2IGwgNTYuNDIxNTEsLTI5LjM2MzMgYyAtMTEuNzMyNTIsLTE4Ljk4NDI1IC0yOS4yMDUxNiwtMzMuOTY3NjggLTUwLjU3OTM3LC00My4zNjE5OSAtNTQuMTM0LC0yMy43ODQyMyAtMTIyLjg1MjA0LC00LjY4NjMgLTE1Ny41MzM4Niw0My40NjIzIGwgNTYuMTM3NjYsMjkuMTk5NDYgYyAxMS42Njk0NSwtMTUuNjc1NTkgMzAuMzg1MSwtMjQuNTIzMiA0OS4yMDY1LC0yNC41MjMyIHoiLz4KICA8cGF0aCBzdHlsZT0iZmlsbDojMDhiMWQ1O3N0cm9rZS13aWR0aDoxLjc2MTE3NjgyIiBpZD0icGF0aDEyNjgiIGQ9Ik0gNDkxLjIzNDE0LDEzOS40MTExOSA0MjcuMjM3NywxNzMuMDA5MzcgQyA0NjAuOTkxOSwyODEuMTYwMjIgMzgzLjU4NTc4LDM5Ny43MjQgMjU0LjM4NTEyLDQzOS43MDY2OCB2IDczLjIyMDE3IEwgNDkxLjIzMjI4LDM4OC41MzE5NyBWIDEzOS40MTExOSBaIi8+CiAgPHBhdGggc3R5bGU9ImZpbGw6bm9uZTtzdHJva2Utd2lkdGg6MS43NjExNzY4MiIgaWQ9InBhdGgxMjcwIiBkPSJtIDI1Mi4xMTI0Niw1MTYuNDg5NjMgdiAtNzguMjIwNzcgbCAxLjUwMDg4LC0wLjQ4ODIgQyAzODIuODc4OTQsMzk1Ljc3NDU3IDQ1OC4xODQ5MiwyNzkuNzE1NzEgNDI1LjA1MDM3LDE3My41NjEwOSBsIC0wLjQ3NDk1LC0xLjUyNjQzIDY4LjkyOTUzLC0zNi4xODk2IHYgMjUzLjg2MjIzIGwgLTEuMTI3OTgsMC41OTM1MiB6IG0gNC41NDUzMywtNzUuMzQ4NDcgdiA2OC4yMjEyMyBMIDQ4OC45NTk2MSwzODcuMzU2NjMgViAxNDIuOTc1NjQgTCA0MjkuODk4MSwxNzMuOTgyNCBjIDMyLjQ1OTI2LDEwNy4zODUxMyAtNDMuMjcxNTgsMjI0LjIyNjQyIC0xNzMuMjQwMzEsMjY3LjE1ODc2IHoiLz4KICA8cGF0aCBzdHlsZT0iZmlsbDojMTkwNGRhO3N0cm9rZS13aWR0aDoxLjc2MTE3NjgyIiBpZD0icGF0aDEyNzIiIGQ9Ik0gMTAuMTA5NTgzLDEzOS4zMzU5NSBWIDM4OC40NjM0MiBMIDI0Ni4xNzE5OCw1MTIuOTI1MTcgViA0MzkuNzA0OTkgQyAxMTQuNjE4ODcsMzk4LjcxNTQxIDM5LjkwNDcxNCwyODEuOTM3NjQgNzQuMTkxMzc1LDE3Mi42ODMzNSBMIDEzLjExMzIxNCwxNDAuODk3NDkgWiIvPgogIDxwYXRoIHN0eWxlPSJmaWxsOm5vbmU7c3Ryb2tlLXdpZHRoOjEuNzYxMTc2ODIiIGlkPSJwYXRoMTI3NCIgZD0iTSAyNDguNDQwOTQsNTE2LjQ5NjMyIDcuODMzMjA1NiwzODkuNjM4NzYgViAxMzUuNzg5ODggbCA2OS4wMjQxNDY0LDM1LjkxNzA4IC0wLjQ3ODY1LDEuNTM0ODEgQyA0Mi40OTA5MTYsMjgxLjIyMDQxIDExNy4zOTk4OCwzOTcuNDE0NjkgMjQ2LjkxMDM3LDQzNy43NzA2MyBsIDEuNTMwNTcsMC40NzgxNiB6IE0gMTIuMzgwMzk2LDM4Ny4yODk3NSAyNDMuODk3NDUsNTA5LjM1NTcgViA0NDEuMTYxMjEgQyAxMTMuNjY3MTQsMzk5Ljg0ODk1IDM4LjMwMTc4NywyODIuODYyMTkgNzEuNTI3MjUyLDE3My42NjQ3NSBMIDEyLjM4MDM5NiwxNDIuODgzNjkgWiIvPgogIDxwYXRoIHN0eWxlPSJmaWxsOiNmZmM5MDA7c3Ryb2tlLXdpZHRoOjEuNzYxMTc2ODIiIGlkPSJwYXRoMTI3NiIgZD0ibSAxMy41MDA5NTgsMTM0LjAxNDM0IDYuOTczODQyLDMuNjI5NjcgNTYuODg5MDMzLDI5LjU5MjM1IEMgMTMyLjA5MzM3LDg2LjU2MDU4MyAyNDYuODIxMzIsNTUuNTE3MDM3IDM0MC40NTUyMSw5Ni42NjI3NzggYyAzMy4yMTI0NywxNC41OTcyMjIgNjAuNTE3ODcsMzcuMjUxMjUyIDgxLjE1NzQsNjcuMzM2ODEyIDAuNjUzMDQsMC45NTEzIDEuNTY1ODEsMS45OTc5IDIuNTUyODEsMy4wOTYzNCBMIDQ4Ny43ODg5NiwxMzMuOTg1OTIgMjUwLjY3MDk0LDEwLjU4NTE0OSBaIi8+CiAgPHBhdGggc3R5bGU9ImZpbGw6bm9uZTtzdHJva2Utd2lkdGg6MS43NjExNzY4MiIgaWQ9InBhdGgxMjc4IiBkPSJNIDc4LjE0NDg4OCwxNzAuMDA2NjYgOC45NTc0ODAxLDEzNC4wMTI2NyAyNTAuNjc0NjQsOC4yMTc1OTMzIGwgMS4xMzcyNywwLjU5MDE3NTIgMjQwLjUyNzk2LDEyNS4xNzY0ODE1IC02OC43MTI0OCwzNS43NTQ5MiAtMS4yMjA3NSwtMS4zNTQyMyBjIC0xLjA2MTE4LC0xLjE3MzY2IC0yLjAyNzc2LC0yLjI5MzgyIC0yLjcyNTMzLC0zLjMxMiAtMjAuNDExMzQsLTI5Ljc0OTUxIC00Ny40MDEzNSwtNTIuMTQ2MDggLTgwLjIxODY2LC02Ni41NzI3NjIgLTkxLjkzNDUsLTQwLjM5NTIzIC0yMDYuMjAwNDksLTkuNzI5NTMgLTI2MC4xNTgyMzcsNjkuODAxMTcyIHogbSAtNjAuMDk2NzM5LC0zNS45OTIzMiA1OC41NDIwNSwzMC40NTUwNCBDIDEzMi4yMjEzNyw4NC40MjU1ODcgMjQ4LjEwMzI4LDUzLjc5OTg0NSAzNDEuNDQ3NzUsOTQuODIxMTk2IGMgMzMuNjA3NjUsMTQuNzcwMjU0IDYxLjIyODQzLDM3LjY4MTc2NCA4Mi4wOTYxNyw2OC4xMDAwMjQgMC4zMzIwNywwLjQ4NDg1IDAuNzM2NTEsMC45ODk3NyAxLjE3OTkyLDEuNTE4MDggTCA0ODMuMjQzNjMsMTMzLjk4NTkyIDI1MC42NzA5NCwxMi45NDczNTQgWiIvPgogIDxwYXRoIHN0eWxlPSJmaWxsOiNmZjQ0NWY7c3Ryb2tlLXdpZHRoOjEuNzYxMTc2ODIiIGlkPSJwYXRoMTI4MCIgZD0ibSAyNTQuMTE0MjYsMjk0LjE2NTgyIGMgMjMuMzM4ODksLTExLjc2MzM5IDM3LjM1MTUyLC0zMC41OTIxNCAzOC4yNDk0NCwtNTEuNDgwNjcgMCwwIDAuMTAzODgsLTIuMDczMTUgLTAuMDcwNCwtNS40MzE5NiAtMC4wMzUzLC0wLjY5MDQ4IC01LjE3NDI3LC0xMS43MDk4NiAtMjAuODM2MTksLTE5LjQwNTU2IC0yMS4wMjcyOCwtMTAuMzMzOTEgLTUwLjg3MDY0LC0wLjM5Mjg4IC02Mi44MjIwOCwxOS40MDU1NiAwLDAgLTAuMjg3NTcsMi40Mjc1OCAtMC4xNTIxMiw1LjQzMTk2IDAuODU3MTEsMTguOTgyNTcgMTMuODM2MzUsNDEuMjczOCAzNi44MTcyLDUxLjQ4MDY3IGwgNC42NjAzNSwyLjAwMjkgeiIvPgogIDxwYXRoIHN0eWxlPSJmaWxsOm5vbmU7c3Ryb2tlLXdpZHRoOjEuNzYxMTc2ODIiIGlkPSJwYXRoMTI4MiIgZD0ibSAyNTAuMDE2MDQsMjk4LjQ2MjU1IC01LjY5MDAyLC0yLjQ0NzY0IGMgLTI1LjE3OTMsLTExLjE4MzIzIC0zNy4yNzkxNywtMzQuNzk2OTIgLTM4LjExNDAyLC01My4yNDQ0OSAtMC4xNDI4NiwtMy4xMTk3NCAwLjE1MDI3LC01LjYyOTI0IDAuMTY1MTIsLTUuNzM0NTggbCAwLjI2MTU4LC0wLjc2MDcgYyA2LjAyMzk2LC05Ljk3Mjc4IDE2LjY4NjAzLC0xNy45NzYwOSAyOS4yNTM0MSwtMjEuOTU2ODUgMTIuNzk3NDMsLTQuMDU2IDI2LjE1ODg1LC0zLjQyNTcgMzYuNjUzOTMsMS43MzA0IDE1Ljg4MjcsNy44MDQzNSAyMS45MjUyMiwxOS4yNDUwNSAyMi4wMTc5OCwyMS4xMDkyIDAuMTgxODIsMy40NzQxOCAwLjA3MDQsNS42MTU4NiAwLjA3MDQsNS42MTU4NiAtMC45MzEzMywyMS42MzkyIC0xNS4yOTY0NCw0MS4wMjYzNyAtMzkuNDEwODMsNTMuMTc5MyB6IG0gLTM5LjE2MjIzLC02MC41OTc0NCBjIC0wLjA2NjksMC43NzU3NSAtMC4xOTQ4MSwyLjYxNDgzIC0wLjA5ODIsNC43MzY0NCAwLjc0OTUxLDE2LjY4MDQgMTIuMTk4MTksMzkuMzU2MTYgMzUuNTQ4MjIsNDkuNzI2ODUgbCAzLjU5NTQ2LDEuNTQ2NDkgMy4xMjA1MSwtMS41MDQ2OSBjIDIyLjY4NzcxLC0xMS40NDA3IDM2LjIwMTI2LC0yOS41Nzg5NyAzNy4wNzEzNywtNDkuNzY1MyAwLjAwNCwtMC4wNTg1IDAuMDk4MiwtMi4wNDk3NCAtMC4wNjY5LC01LjI1NjQxIC0wLjQ2NTY2LC0xLjMxMDc2IC01Ljk1MzQ2LC0xMC45Njc1NyAtMTkuNjU2MjUsLTE3LjcwMzU4IC05LjM2MTU0LC00LjYwMTAzIC0yMS4zNzQyLC01LjEzMSAtMzIuOTczMTUsLTEuNDYyOSAtMTEuMzYzMzQsMy41OTk1NyAtMjEuMDA4NzIsMTAuNzYwMjUgLTI2LjU0MTA0LDE5LjY4MzEgeiIvPgo8L3N2Zz4=;fontStyle=1;fontSize=14;whiteSpace=wrap;strokeColor=#000000;fontColor=#000000;" parent="1" vertex="1">
                    <mxGeometry x="711.2" y="127.5" width="52.46" height="55" as="geometry"/>
                </mxCell>
                <mxCell id="11" value="&lt;b&gt;&lt;font color=&quot;#000000&quot;&gt;6. scan&lt;/font&gt;&lt;/b&gt;" style="text;html=1;align=center;verticalAlign=middle;resizable=0;points=[];autosize=1;strokeColor=none;fillColor=none;" parent="1" vertex="1">
                    <mxGeometry x="626.2" y="130" width="60" height="30" as="geometry"/>
                </mxCell>
                <mxCell id="15" style="edgeStyle=none;html=1;entryX=0;entryY=0.5;entryDx=0;entryDy=0;entryPerimeter=0;strokeColor=#000000;" parent="1" source="14" target="6" edge="1">
                    <mxGeometry relative="1" as="geometry"/>
                </mxCell>
                <mxCell id="14" value="&lt;b&gt;&lt;font color=&quot;#000000&quot; style=&quot;font-size: 14px;&quot;&gt;Feedgy/Infra.git&lt;/font&gt;&lt;/b&gt;" style="verticalLabelPosition=bottom;html=1;verticalAlign=top;align=center;strokeColor=#000000;fillColor=#000000;shape=mxgraph.azure.github_code;pointerEvents=1;" parent="1" vertex="1">
                    <mxGeometry x="191.2" y="130" width="50" height="50" as="geometry"/>
                </mxCell>
                <mxCell id="16" value="&lt;b&gt;&lt;font color=&quot;#000000&quot;&gt;2. trigger&lt;/font&gt;&lt;/b&gt;" style="text;html=1;align=center;verticalAlign=middle;resizable=0;points=[];autosize=1;strokeColor=none;fillColor=none;" parent="1" vertex="1">
                    <mxGeometry x="256.2" y="130" width="70" height="30" as="geometry"/>
                </mxCell>
                <mxCell id="17" style="edgeStyle=none;html=1;entryX=0.72;entryY=0.04;entryDx=0;entryDy=0;entryPerimeter=0;strokeColor=#000000;" parent="1" source="6" target="6" edge="1">
                    <mxGeometry relative="1" as="geometry">
                        <mxPoint x="401.2" y="150" as="targetPoint"/>
                        <Array as="points">
                            <mxPoint x="371.2" y="80"/>
                            <mxPoint x="401.2" y="80"/>
                        </Array>
                    </mxGeometry>
                </mxCell>
                <mxCell id="18" value="&lt;b&gt;&lt;font color=&quot;#000000&quot;&gt;3. create tag&lt;br&gt;&amp;nbsp; &amp;nbsp;4. build image&lt;/font&gt;&lt;/b&gt;" style="text;html=1;align=center;verticalAlign=middle;resizable=0;points=[];autosize=1;strokeColor=none;fillColor=none;" parent="1" vertex="1">
                    <mxGeometry x="336.2" y="40" width="110" height="40" as="geometry"/>
                </mxCell>
                <mxCell id="20" style="edgeStyle=none;html=1;entryX=0;entryY=0.5;entryDx=0;entryDy=0;entryPerimeter=0;strokeColor=#000000;" parent="1" source="19" target="14" edge="1">
                    <mxGeometry relative="1" as="geometry">
                        <Array as="points">
                            <mxPoint x="121.2" y="155"/>
                        </Array>
                    </mxGeometry>
                </mxCell>
                <mxCell id="19" value="&lt;font color=&quot;#000000&quot; style=&quot;font-size: 14px;&quot;&gt;&lt;b&gt;developer&lt;/b&gt;&lt;/font&gt;" style="points=[];aspect=fixed;html=1;align=center;shadow=0;dashed=0;image;image=img/lib/allied_telesis/computer_and_terminals/Personal_Computer_with_Server.svg;labelBackgroundColor=none;strokeColor=#000000;" parent="1" vertex="1">
                    <mxGeometry x="90" y="310" width="62.400000000000006" height="62.400000000000006" as="geometry"/>
                </mxCell>
                <mxCell id="23" value="&lt;b&gt;&lt;font color=&quot;#000000&quot;&gt;1. git push&lt;/font&gt;&lt;/b&gt;" style="text;html=1;align=center;verticalAlign=middle;resizable=0;points=[];autosize=1;strokeColor=none;fillColor=none;rotation=0;" parent="1" vertex="1">
                    <mxGeometry x="116.2" y="230" width="80" height="30" as="geometry"/>
                </mxCell>
                <mxCell id="24" value="&lt;b&gt;&lt;font color=&quot;#000000&quot;&gt;branch = production || staging&lt;/font&gt;&lt;br&gt;&lt;/b&gt;" style="text;html=1;align=center;verticalAlign=middle;resizable=0;points=[];autosize=1;strokeColor=none;fillColor=none;" parent="1" vertex="1">
                    <mxGeometry x="126.2" y="247" width="200" height="30" as="geometry"/>
                </mxCell>
                <mxCell id="26" value="&lt;b&gt;&lt;font color=&quot;#000000&quot;&gt;6. upload report&lt;/font&gt;&lt;/b&gt;" style="text;html=1;align=center;verticalAlign=middle;resizable=0;points=[];autosize=1;strokeColor=none;fillColor=none;" parent="1" vertex="1">
                    <mxGeometry x="485.2" y="280" width="110" height="30" as="geometry"/>
                </mxCell>
                <mxCell id="27" style="edgeStyle=none;html=1;entryX=0.64;entryY=0.06;entryDx=0;entryDy=0;entryPerimeter=0;strokeColor=#000000;" parent="1" source="14" target="14" edge="1">
                    <mxGeometry relative="1" as="geometry">
                        <Array as="points">
                            <mxPoint x="211.2" y="80"/>
                            <mxPoint x="241.2" y="80"/>
                        </Array>
                    </mxGeometry>
                </mxCell>
                <mxCell id="29" value="&lt;b style=&quot;&quot;&gt;&lt;font style=&quot;&quot; color=&quot;#000000&quot;&gt;7. change version &lt;br&gt;in values-&amp;lt;branch&amp;gt;.yaml&lt;/font&gt;&lt;/b&gt;" style="text;html=1;align=center;verticalAlign=middle;resizable=0;points=[];autosize=1;strokeColor=none;fillColor=none;" parent="1" vertex="1">
                    <mxGeometry x="136.2" y="40" width="160" height="40" as="geometry"/>
                </mxCell>
                <mxCell id="31" value="&lt;h1&gt;&lt;font color=&quot;#000000&quot;&gt;workflows/release.yml&lt;/font&gt;&lt;/h1&gt;" style="text;html=1;align=center;verticalAlign=middle;resizable=0;points=[];autosize=1;strokeColor=none;fillColor=none;fontSize=14;strokeWidth=2;dashed=1;" parent="1" vertex="1">
                    <mxGeometry x="275.2" y="440" width="320" height="80" as="geometry"/>
                </mxCell>
            </root>
        </mxGraphModel>
    </diagram>
</mxfile>